<mxfile host="app.diagrams.net" agent="Mozilla/5.0 (Windows NT 10.0; Win64; x64) AppleWebKit/537.36 (KHTML, like Gecko) Chrome/140.0.0.0 Safari/537.36" version="28.2.3">
  <diagram name="Страница — 1" id="Mbz9Qpyyy2EFR9nrVoZ2">
    <mxGraphModel dx="2040" dy="652" grid="1" gridSize="10" guides="1" tooltips="1" connect="1" arrows="1" fold="1" page="1" pageScale="1" pageWidth="827" pageHeight="1169" math="0" shadow="0">
      <root>
        <mxCell id="0" />
        <mxCell id="1" parent="0" />
        <mxCell id="MQod6-LXG8U6oC--Rgh6-61" value="establishment" style="swimlane;fontStyle=0;childLayout=stackLayout;horizontal=1;startSize=26;horizontalStack=0;resizeParent=1;resizeParentMax=0;resizeLast=0;collapsible=1;marginBottom=0;align=center;fontSize=14;" parent="1" vertex="1">
          <mxGeometry x="-60" y="605" width="218" height="176" as="geometry" />
        </mxCell>
        <mxCell id="QiWtvqBnO781isX9a_6--3" value="type&lt;span style=&quot;font-weight: normal;&quot;&gt;: ENUM (&#39;cafe&#39;, &#39;restaurant&#39;, &#39;shop&#39;)&lt;/span&gt;" style="text;strokeColor=none;fillColor=none;spacingLeft=4;spacingRight=4;overflow=hidden;rotatable=0;points=[[0,0.5],[1,0.5]];portConstraint=eastwest;fontSize=12;whiteSpace=wrap;html=1;fontStyle=1" parent="MQod6-LXG8U6oC--Rgh6-61" vertex="1">
          <mxGeometry y="26" width="218" height="30" as="geometry" />
        </mxCell>
        <mxCell id="MQod6-LXG8U6oC--Rgh6-62" value="name&lt;span style=&quot;font-weight: normal;&quot;&gt;: VARCHAR(100)&lt;/span&gt;" style="text;strokeColor=none;fillColor=none;spacingLeft=4;spacingRight=4;overflow=hidden;rotatable=0;points=[[0,0.5],[1,0.5]];portConstraint=eastwest;fontSize=12;whiteSpace=wrap;html=1;fontStyle=1" parent="MQod6-LXG8U6oC--Rgh6-61" vertex="1">
          <mxGeometry y="56" width="218" height="30" as="geometry" />
        </mxCell>
        <mxCell id="MQod6-LXG8U6oC--Rgh6-64" value="email&lt;span style=&quot;font-weight: normal;&quot;&gt;: VARCHAR(100)&lt;/span&gt;&lt;div&gt;&lt;br&gt;&lt;/div&gt;" style="text;strokeColor=none;fillColor=none;spacingLeft=4;spacingRight=4;overflow=hidden;rotatable=0;points=[[0,0.5],[1,0.5]];portConstraint=eastwest;fontSize=12;whiteSpace=wrap;html=1;fontStyle=1" parent="MQod6-LXG8U6oC--Rgh6-61" vertex="1">
          <mxGeometry y="86" width="218" height="30" as="geometry" />
        </mxCell>
        <mxCell id="MQod6-LXG8U6oC--Rgh6-65" value="&lt;div&gt;phone&lt;span style=&quot;font-weight: normal;&quot;&gt;: VARCHAR(16)&lt;/span&gt;&lt;/div&gt;" style="text;strokeColor=none;fillColor=none;spacingLeft=4;spacingRight=4;overflow=hidden;rotatable=0;points=[[0,0.5],[1,0.5]];portConstraint=eastwest;fontSize=12;whiteSpace=wrap;html=1;fontStyle=1" parent="MQod6-LXG8U6oC--Rgh6-61" vertex="1">
          <mxGeometry y="116" width="218" height="30" as="geometry" />
        </mxCell>
        <mxCell id="MQod6-LXG8U6oC--Rgh6-66" value="&lt;div&gt;address&lt;span style=&quot;font-weight: normal;&quot;&gt;: VARCHAR(100)&lt;/span&gt;&lt;/div&gt;" style="text;strokeColor=none;fillColor=none;spacingLeft=4;spacingRight=4;overflow=hidden;rotatable=0;points=[[0,0.5],[1,0.5]];portConstraint=eastwest;fontSize=12;whiteSpace=wrap;html=1;fontStyle=1" parent="MQod6-LXG8U6oC--Rgh6-61" vertex="1">
          <mxGeometry y="146" width="218" height="30" as="geometry" />
        </mxCell>
        <mxCell id="MQod6-LXG8U6oC--Rgh6-67" value="product" style="swimlane;fontStyle=0;childLayout=stackLayout;horizontal=1;startSize=26;horizontalStack=0;resizeParent=1;resizeParentMax=0;resizeLast=0;collapsible=1;marginBottom=0;align=center;fontSize=14;" parent="1" vertex="1">
          <mxGeometry x="195" y="320" width="220" height="206" as="geometry" />
        </mxCell>
        <mxCell id="MQod6-LXG8U6oC--Rgh6-69" value="&lt;b&gt;name&lt;/b&gt;: VARCHAR(100)&amp;nbsp;" style="text;strokeColor=none;fillColor=none;spacingLeft=4;spacingRight=4;overflow=hidden;rotatable=0;points=[[0,0.5],[1,0.5]];portConstraint=eastwest;fontSize=12;whiteSpace=wrap;html=1;" parent="MQod6-LXG8U6oC--Rgh6-67" vertex="1">
          <mxGeometry y="26" width="220" height="30" as="geometry" />
        </mxCell>
        <mxCell id="MQod6-LXG8U6oC--Rgh6-68" value="&lt;b&gt;available_quantity&lt;/b&gt;: INT" style="text;strokeColor=none;fillColor=none;spacingLeft=4;spacingRight=4;overflow=hidden;rotatable=0;points=[[0,0.5],[1,0.5]];portConstraint=eastwest;fontSize=12;whiteSpace=wrap;html=1;" parent="MQod6-LXG8U6oC--Rgh6-67" vertex="1">
          <mxGeometry y="56" width="220" height="30" as="geometry" />
        </mxCell>
        <mxCell id="MQod6-LXG8U6oC--Rgh6-70" value="&lt;div&gt;&lt;b&gt;price&lt;/b&gt;: NUMERIC(10, 2)&amp;nbsp;&lt;/div&gt;" style="text;strokeColor=none;fillColor=none;spacingLeft=4;spacingRight=4;overflow=hidden;rotatable=0;points=[[0,0.5],[1,0.5]];portConstraint=eastwest;fontSize=12;whiteSpace=wrap;html=1;" parent="MQod6-LXG8U6oC--Rgh6-67" vertex="1">
          <mxGeometry y="86" width="220" height="30" as="geometry" />
        </mxCell>
        <mxCell id="MQod6-LXG8U6oC--Rgh6-71" value="&lt;b&gt;wholesale_price:&lt;/b&gt; NUMERIC (10, 2)" style="text;strokeColor=none;fillColor=none;spacingLeft=4;spacingRight=4;overflow=hidden;rotatable=0;points=[[0,0.5],[1,0.5]];portConstraint=eastwest;fontSize=12;whiteSpace=wrap;html=1;" parent="MQod6-LXG8U6oC--Rgh6-67" vertex="1">
          <mxGeometry y="116" width="220" height="30" as="geometry" />
        </mxCell>
        <mxCell id="QiWtvqBnO781isX9a_6--2" value="&lt;b&gt;wholesale_minimum_quantity: &lt;/b&gt;INT" style="text;strokeColor=none;fillColor=none;spacingLeft=4;spacingRight=4;overflow=hidden;rotatable=0;points=[[0,0.5],[1,0.5]];portConstraint=eastwest;fontSize=12;whiteSpace=wrap;html=1;" parent="MQod6-LXG8U6oC--Rgh6-67" vertex="1">
          <mxGeometry y="146" width="220" height="30" as="geometry" />
        </mxCell>
        <mxCell id="MQod6-LXG8U6oC--Rgh6-73" value="&lt;b&gt;is_active&lt;/b&gt;: BOOLEAN" style="text;strokeColor=none;fillColor=none;spacingLeft=4;spacingRight=4;overflow=hidden;rotatable=0;points=[[0,0.5],[1,0.5]];portConstraint=eastwest;fontSize=12;whiteSpace=wrap;html=1;" parent="MQod6-LXG8U6oC--Rgh6-67" vertex="1">
          <mxGeometry y="176" width="220" height="30" as="geometry" />
        </mxCell>
        <mxCell id="MQod6-LXG8U6oC--Rgh6-74" value="order" style="swimlane;fontStyle=0;childLayout=stackLayout;horizontal=1;startSize=26;horizontalStack=0;resizeParent=1;resizeParentMax=0;resizeLast=0;collapsible=1;marginBottom=0;align=center;fontSize=14;" parent="1" vertex="1">
          <mxGeometry x="195" y="650" width="250" height="86" as="geometry" />
        </mxCell>
        <mxCell id="MQod6-LXG8U6oC--Rgh6-87" value="date&lt;span style=&quot;font-weight: normal;&quot;&gt;: TIMESTAMP&lt;/span&gt;" style="text;strokeColor=none;fillColor=none;spacingLeft=4;spacingRight=4;overflow=hidden;rotatable=0;points=[[0,0.5],[1,0.5]];portConstraint=eastwest;fontSize=12;whiteSpace=wrap;html=1;fontStyle=1" parent="MQod6-LXG8U6oC--Rgh6-74" vertex="1">
          <mxGeometry y="26" width="250" height="30" as="geometry" />
        </mxCell>
        <mxCell id="MQod6-LXG8U6oC--Rgh6-86" value="status&lt;span style=&quot;font-weight: normal;&quot;&gt;: ENUM (&#39;new&#39;, &#39;confirmed&#39;, &#39;delivered&#39;)&lt;/span&gt;" style="text;strokeColor=none;fillColor=none;spacingLeft=4;spacingRight=4;overflow=hidden;rotatable=0;points=[[0,0.5],[1,0.5]];portConstraint=eastwest;fontSize=12;whiteSpace=wrap;html=1;fontStyle=1" parent="MQod6-LXG8U6oC--Rgh6-74" vertex="1">
          <mxGeometry y="56" width="250" height="30" as="geometry" />
        </mxCell>
        <mxCell id="MQod6-LXG8U6oC--Rgh6-80" value="order_product" style="swimlane;fontStyle=0;childLayout=stackLayout;horizontal=1;startSize=26;horizontalStack=0;resizeParent=1;resizeParentMax=0;resizeLast=0;collapsible=1;marginBottom=0;align=center;fontSize=14;" parent="1" vertex="1">
          <mxGeometry x="240" y="546" width="160" height="86" as="geometry" />
        </mxCell>
        <mxCell id="MQod6-LXG8U6oC--Rgh6-81" value="quantity: &lt;span style=&quot;font-weight: normal;&quot;&gt;INT&lt;/span&gt;" style="text;strokeColor=none;fillColor=none;spacingLeft=4;spacingRight=4;overflow=hidden;rotatable=0;points=[[0,0.5],[1,0.5]];portConstraint=eastwest;fontSize=12;whiteSpace=wrap;html=1;fontStyle=1" parent="MQod6-LXG8U6oC--Rgh6-80" vertex="1">
          <mxGeometry y="26" width="160" height="30" as="geometry" />
        </mxCell>
        <mxCell id="Gh7_oBBOyWDQd8LxYg9G-1" value="price: &lt;span style=&quot;font-weight: normal;&quot;&gt;INT&lt;/span&gt;" style="text;strokeColor=none;fillColor=none;spacingLeft=4;spacingRight=4;overflow=hidden;rotatable=0;points=[[0,0.5],[1,0.5]];portConstraint=eastwest;fontSize=12;whiteSpace=wrap;html=1;fontStyle=1" vertex="1" parent="MQod6-LXG8U6oC--Rgh6-80">
          <mxGeometry y="56" width="160" height="30" as="geometry" />
        </mxCell>
        <mxCell id="MQod6-LXG8U6oC--Rgh6-101" value="" style="edgeStyle=entityRelationEdgeStyle;fontSize=12;html=1;endArrow=ERzeroToMany;startArrow=ERmandOne;rounded=0;entryX=1;entryY=0.25;entryDx=0;entryDy=0;" parent="1" source="MQod6-LXG8U6oC--Rgh6-67" target="MQod6-LXG8U6oC--Rgh6-80" edge="1">
          <mxGeometry width="100" height="100" relative="1" as="geometry">
            <mxPoint x="210" y="660" as="sourcePoint" />
            <mxPoint x="310" y="560" as="targetPoint" />
            <Array as="points">
              <mxPoint x="490" y="530" />
              <mxPoint x="490" y="510" />
              <mxPoint x="470" y="510" />
            </Array>
          </mxGeometry>
        </mxCell>
        <mxCell id="MQod6-LXG8U6oC--Rgh6-102" value="" style="edgeStyle=entityRelationEdgeStyle;fontSize=12;html=1;endArrow=ERzeroToMany;startArrow=ERmandOne;rounded=0;entryX=1;entryY=0.5;entryDx=0;entryDy=0;" parent="1" source="MQod6-LXG8U6oC--Rgh6-74" target="Gh7_oBBOyWDQd8LxYg9G-1" edge="1">
          <mxGeometry width="100" height="100" relative="1" as="geometry">
            <mxPoint x="600" y="710" as="sourcePoint" />
            <mxPoint x="530" y="640" as="targetPoint" />
            <Array as="points">
              <mxPoint x="480" y="620" />
              <mxPoint x="480" y="620" />
              <mxPoint x="440" y="620" />
              <mxPoint x="440" y="610" />
              <mxPoint x="440" y="620" />
              <mxPoint x="430" y="610" />
              <mxPoint x="480" y="630" />
              <mxPoint x="480" y="640" />
            </Array>
          </mxGeometry>
        </mxCell>
        <mxCell id="MQod6-LXG8U6oC--Rgh6-104" value="" style="edgeStyle=entityRelationEdgeStyle;fontSize=12;html=1;endArrow=ERzeroToMany;startArrow=ERmandOne;rounded=0;" parent="1" source="MQod6-LXG8U6oC--Rgh6-61" target="MQod6-LXG8U6oC--Rgh6-74" edge="1">
          <mxGeometry width="100" height="100" relative="1" as="geometry">
            <mxPoint x="130" y="730" as="sourcePoint" />
            <mxPoint x="230" y="630" as="targetPoint" />
          </mxGeometry>
        </mxCell>
        <mxCell id="MQod6-LXG8U6oC--Rgh6-106" value="account " style="swimlane;fontStyle=0;childLayout=stackLayout;horizontal=1;startSize=26;horizontalStack=0;resizeParent=1;resizeParentMax=0;resizeLast=0;collapsible=1;marginBottom=0;align=center;fontSize=14;" parent="1" vertex="1">
          <mxGeometry x="-89" y="441" width="200" height="116" as="geometry" />
        </mxCell>
        <mxCell id="MQod6-LXG8U6oC--Rgh6-107" value="username&lt;span style=&quot;font-weight: normal;&quot;&gt;: VARCHAR(50)&lt;/span&gt;" style="text;strokeColor=none;fillColor=none;spacingLeft=4;spacingRight=4;overflow=hidden;rotatable=0;points=[[0,0.5],[1,0.5]];portConstraint=eastwest;fontSize=12;whiteSpace=wrap;html=1;fontStyle=1" parent="MQod6-LXG8U6oC--Rgh6-106" vertex="1">
          <mxGeometry y="26" width="200" height="30" as="geometry" />
        </mxCell>
        <mxCell id="MQod6-LXG8U6oC--Rgh6-109" value="&lt;div&gt;password_hash&lt;span style=&quot;font-weight: normal;&quot;&gt;: VARCHAR(256)&lt;/span&gt;&lt;/div&gt;" style="text;strokeColor=none;fillColor=none;spacingLeft=4;spacingRight=4;overflow=hidden;rotatable=0;points=[[0,0.5],[1,0.5]];portConstraint=eastwest;fontSize=12;whiteSpace=wrap;html=1;fontStyle=1" parent="MQod6-LXG8U6oC--Rgh6-106" vertex="1">
          <mxGeometry y="56" width="200" height="30" as="geometry" />
        </mxCell>
        <mxCell id="MQod6-LXG8U6oC--Rgh6-110" value="&lt;div&gt;address&lt;span style=&quot;font-weight: normal;&quot;&gt;: VARCHAR(100)&lt;/span&gt;&lt;/div&gt;" style="text;strokeColor=none;fillColor=none;spacingLeft=4;spacingRight=4;overflow=hidden;rotatable=0;points=[[0,0.5],[1,0.5]];portConstraint=eastwest;fontSize=12;whiteSpace=wrap;html=1;fontStyle=1" parent="MQod6-LXG8U6oC--Rgh6-106" vertex="1">
          <mxGeometry y="86" width="200" height="30" as="geometry" />
        </mxCell>
        <mxCell id="MQod6-LXG8U6oC--Rgh6-116" value="Tables used only for authentication/authorization" style="shape=note;size=20;whiteSpace=wrap;html=1;" parent="1" vertex="1">
          <mxGeometry x="-67" y="291" width="160" height="100" as="geometry" />
        </mxCell>
        <mxCell id="MQod6-LXG8U6oC--Rgh6-118" value="" style="endArrow=none;html=1;rounded=0;entryX=0.509;entryY=0.554;entryDx=0;entryDy=0;entryPerimeter=0;" parent="1" source="MQod6-LXG8U6oC--Rgh6-116" target="MQod6-LXG8U6oC--Rgh6-119" edge="1">
          <mxGeometry relative="1" as="geometry">
            <mxPoint x="30" y="411" as="sourcePoint" />
            <mxPoint x="30" y="421" as="targetPoint" />
          </mxGeometry>
        </mxCell>
        <mxCell id="MQod6-LXG8U6oC--Rgh6-119" value="" style="line;strokeWidth=1;rotatable=0;dashed=0;labelPosition=right;align=left;verticalAlign=middle;spacingTop=0;spacingLeft=6;points=[];portConstraint=eastwest;" parent="1" vertex="1">
          <mxGeometry x="-100" y="415" width="220" height="10" as="geometry" />
        </mxCell>
        <mxCell id="MQod6-LXG8U6oC--Rgh6-121" value="" style="endArrow=none;html=1;rounded=0;entryX=0.001;entryY=0.5;entryDx=0;entryDy=0;entryPerimeter=0;" parent="1" target="MQod6-LXG8U6oC--Rgh6-119" edge="1">
          <mxGeometry relative="1" as="geometry">
            <mxPoint x="-100" y="455.22" as="sourcePoint" />
            <mxPoint x="-99.75" y="425" as="targetPoint" />
          </mxGeometry>
        </mxCell>
        <mxCell id="MQod6-LXG8U6oC--Rgh6-122" value="" style="endArrow=none;html=1;rounded=0;" parent="1" edge="1">
          <mxGeometry relative="1" as="geometry">
            <mxPoint x="120" y="450" as="sourcePoint" />
            <mxPoint x="120" y="420" as="targetPoint" />
          </mxGeometry>
        </mxCell>
      </root>
    </mxGraphModel>
  </diagram>
</mxfile>
